# xmcd
#
# Track frame offsets:
#	150
#	23082
#	35425
#	60335
#	97132
#	115077
#	134842
#	152710
#	175232
#	199057
#	219732
#
# Disc length: 3155 seconds
#
# Revision: 1
# Processed by: cddbd v1.4b41PL2 Copyright (c) Steve Scherf et al.
# Submitted via: audiograbber 1.80
#
DISCID=9b0c510b
DTITLE=Screamin' Jay Hawkins - I Shake my Stick at You
DYEAR=1900
DGENRE=
TTITLE0=Live Love Or Die
TTITLE1=Because Of You
TTITLE2=Don't Fool With Me
TTITLE3=Furburger
TTITLE4=Cookie Time
TTITLE5=The Rose
TTITLE6=Tear Drops
TTITLE7=Bushman Tucker
TTITLE8=In My Heart
TTITLE9=Rockin Away
TTITLE10=Rock Australia Rock
EXTD=
EXTT0=
EXTT1=
EXTT2=
EXTT3=
EXTT4=
EXTT5=
EXTT6=
EXTT7=
EXTT8=
EXTT9=
EXTT10=
PLAYORDER=
